Coordinates
version=1
nRows=16
nColumns=63
inDegrees=yes

Units are S.I. units (second, meters, Newtons, ...)
If the header above contains a line with 'inDegrees', this indicates whether rotational values are in degrees (yes) or radians (no).

endheader
time	pelvis_tilt	pelvis_list	pelvis_rotation	pelvis_tx	pelvis_ty	pelvis_tz	hip_flexion_r	hip_adduction_r	hip_rotation_r	knee_angle_r	knee_angle_r_beta	ankle_angle_r	subtalar_angle_r	mtp_angle_r	hip_flexion_l	hip_adduction_l	hip_rotation_l	knee_angle_l	knee_angle_l_beta	ankle_angle_l	subtalar_angle_l	mtp_angle_l	L5_S1_Flex_Ext	L5_S1_Lat_Bending	L5_S1_axial_rotation	L4_L5_Flex_Ext	L4_L5_Lat_Bending	L4_L5_axial_rotation	L3_L4_Flex_Ext	L3_L4_Lat_Bending	L3_L4_axial_rotation	L2_L3_Flex_Ext	L2_L3_Lat_Bending	L2_L3_axial_rotation	L1_L2_Flex_Ext	L1_L2_Lat_Bending	L1_L2_axial_rotation	L1_T12_Flex_Ext	L1_T12_Lat_Bending	L1_T12_axial_rotation	Abs_r3	Abs_r2	Abs_r1	Abs_t1	Abs_t2	neck_flexion	neck_bending	neck_rotation	arm_flex_r	arm_add_r	arm_rot_r	elbow_flex_r	pro_sup_r	wrist_flex_r	wrist_dev_r	arm_flex_l	arm_add_l	arm_rot_l	elbow_flex_l	pro_sup_l	wrist_flex_l	wrist_dev_l
2.616667	0.301925	-7.006898	85.540676	0.195880	0.952438	0.341078	2.470680	4.523960	10.240856	16.342146	0.285224	32.089805	-7.629463	0.000000	2.598056	-3.110631	-4.949226	17.831889	0.311225	32.878233	-8.613963	0.000000	-0.135829	0.093773	1.354907	-0.252248	0.124718	1.439589	-0.223153	0.227999	1.439589	-0.155239	0.227999	1.185544	-0.126131	0.191222	1.100862	-0.077613	0.145254	1.016180	-0.970211	1.060778	7.535588	0.000000	0.000000	27.359493	-0.527266	-2.723973	-18.927510	-9.313755	-6.242096	95.740691	85.171890	-0.634291	11.740335	-6.836988	-14.132942	10.025499	76.482171	89.417105	-17.150856	-5.781881
2.633333	0.312179	-6.985749	85.553546	0.195560	0.953662	0.340905	2.188182	4.431228	9.968185	15.814945	0.276023	31.820460	-7.015518	0.000000	2.489361	-3.079224	-4.706911	17.604123	0.307250	32.608998	-8.780952	0.000000	-0.133710	0.111585	1.177292	-0.248313	0.148409	1.250873	-0.219673	0.271309	1.250873	-0.152818	0.271309	1.030131	-0.124163	0.227545	0.956550	-0.076402	0.172846	0.882969	-0.955080	1.262277	6.547746	0.000000	0.000000	27.299120	-0.354194	-1.367786	-19.730289	-10.053951	-5.422386	95.969587	85.348452	0.617348	11.418516	-6.873741	-13.562468	7.862524	80.561994	89.366306	-16.206044	-4.907431
2.650000	0.264000	-6.978179	85.493331	0.195357	0.954970	0.340820	1.916355	4.262132	9.625189	15.250964	0.266180	31.565134	-6.204916	0.000000	2.371940	-2.992359	-4.543349	17.324074	0.302362	32.308185	-8.918940	0.000000	-0.132093	0.120496	1.027389	-0.245310	0.160260	1.091600	-0.217015	0.292975	1.091600	-0.150969	0.292975	0.898965	-0.122661	0.245716	0.834753	-0.075478	0.186649	0.770542	-0.943526	1.363079	5.714028	0.000000	0.000000	27.247736	-0.129136	-0.147017	-20.560378	-10.754738	-4.808736	96.372099	85.482762	1.919981	11.190583	-6.847950	-13.076807	5.641418	84.726547	89.245495	-15.097738	-3.643617
2.666667	0.158568	-6.994322	85.354572	0.195291	0.956278	0.340810	1.675157	4.035041	9.320885	14.678523	0.256189	31.310008	-5.347505	0.000000	2.260433	-2.854094	-4.467047	17.009265	0.296868	31.975548	-9.011441	0.000000	-0.128542	0.120161	0.908146	-0.238716	0.159814	0.964905	-0.211182	0.292159	0.964905	-0.146911	0.292159	0.794628	-0.119364	0.245032	0.737869	-0.073449	0.186129	0.681110	-0.918164	1.359284	5.050836	0.000000	0.000000	27.215870	0.149908	0.968579	-21.444610	-11.400188	-4.341036	96.852221	85.773643	2.991356	10.683570	-6.727907	-12.688865	3.482861	88.871526	88.872652	-13.989441	-2.034683
2.683333	0.010455	-7.017018	85.118886	0.195387	0.957560	0.340943	1.456002	3.756280	8.999134	14.110317	0.246271	31.084136	-4.335211	0.000000	2.142869	-2.677015	-4.488644	16.673550	0.291008	31.601634	-9.097457	0.000000	-0.126140	0.110971	0.828533	-0.234255	0.147592	0.880316	-0.207236	0.269815	0.880316	-0.144166	0.269815	0.724966	-0.117134	0.226292	0.673183	-0.072077	0.171894	0.621400	-0.901007	1.255327	4.608053	0.000000	0.000000	27.189577	0.447476	1.825474	-22.408340	-11.948475	-4.134123	97.446159	86.075164	4.098353	10.299433	-6.455368	-12.427197	1.462321	92.876557	88.452605	-12.841141	-0.105561
2.700000	-0.176413	-7.046908	84.825443	0.195581	0.958786	0.341205	1.267801	3.444741	8.740553	13.570349	0.236847	30.852486	-3.366722	0.000000	2.035541	-2.463330	-4.576937	16.341176	0.285207	31.169001	-9.178391	0.000000	-0.124611	0.094607	0.779656	-0.231416	0.125827	0.828384	-0.204724	0.230027	0.828384	-0.142418	0.230027	0.682199	-0.115714	0.192922	0.633470	-0.071203	0.146546	0.584742	-0.890087	1.070210	4.336211	0.000000	0.000000	27.177325	0.736687	2.501406	-23.463925	-12.436680	-4.059594	98.061642	86.483660	4.826102	9.606675	-6.028724	-12.280619	-0.329283	96.576823	87.774170	-11.815065	1.827153
2.716667	-0.382879	-7.085067	84.472284	0.195872	0.959918	0.341572	1.117747	3.120878	8.541325	13.075329	0.228208	30.637833	-2.433770	0.000000	1.940053	-2.229897	-4.725241	16.021371	0.279626	30.681204	-9.286293	0.000000	-0.123702	0.074000	0.763328	-0.229727	0.098420	0.811036	-0.203230	0.179923	0.811036	-0.141379	0.179923	0.667912	-0.114870	0.150900	0.620204	-0.070683	0.114626	0.572496	-0.883593	0.837099	4.245400	0.000000	0.000000	27.176022	0.970133	2.982771	-24.625556	-12.857812	-4.135648	98.697735	86.902631	5.196060	8.668147	-5.457791	-12.244592	-1.845906	99.893923	86.905055	-10.922478	3.662034
2.733333	-0.613156	-7.130448	84.066732	0.196256	0.960940	0.342030	1.016600	2.784464	8.408017	12.647880	0.220747	30.451560	-1.563492	0.000000	1.858533	-1.978733	-4.970300	15.721582	0.274393	30.154648	-9.362685	0.000000	-0.123686	0.049253	0.773283	-0.229698	0.065506	0.821613	-0.203204	0.119753	0.821613	-0.141361	0.119753	0.676622	-0.114855	0.100436	0.628292	-0.070674	0.076292	0.579962	-0.883479	0.557155	4.300766	0.000000	0.000000	27.187127	1.149701	3.295222	-25.862029	-13.216212	-4.317458	99.310760	87.310747	5.219645	7.426438	-4.770542	-12.313950	-3.108654	102.816460	85.871316	-10.131076	5.430662
2.750000	-0.832026	-7.175467	83.644477	0.196659	0.961863	0.342539	0.944850	2.467825	8.311174	12.273913	0.214220	30.268938	-0.761941	0.000000	1.785921	-1.743119	-5.294632	15.449876	0.269651	29.612366	-9.394256	0.000000	-0.125455	0.026357	0.796144	-0.232982	0.035054	0.845903	-0.206110	0.064084	0.845903	-0.143382	0.064084	0.696626	-0.116497	0.053746	0.646867	-0.071685	0.040826	0.597108	-0.896111	0.298152	4.427912	0.000000	0.000000	27.200792	1.259873	3.521248	-27.148294	-13.516688	-4.596677	99.904642	87.677722	4.988600	6.024770	-3.988625	-12.447354	-4.122108	105.248429	84.600591	-9.551019	6.844476
2.766667	-1.045464	-7.219318	83.217687	0.197046	0.962674	0.343097	0.919653	2.169114	8.258146	11.990328	0.209271	30.100518	-0.079926	0.000000	1.723150	-1.514781	-5.683304	15.201327	0.265313	29.069313	-9.391424	0.000000	-0.128849	0.005604	0.823110	-0.239286	0.007454	0.874555	-0.211687	0.013627	0.874555	-0.147262	0.013627	0.720221	-0.119650	0.011429	0.668777	-0.073625	0.008681	0.617333	-0.920358	0.063399	4.577892	0.000000	0.000000	27.218253	1.306741	3.699404	-28.420568	-13.779576	-4.907618	100.431837	87.989229	4.559806	4.395852	-3.111796	-12.649459	-4.903772	107.207081	83.182733	-9.197972	7.972851
2.783333	-1.250077	-7.267773	82.799593	0.197415	0.963362	0.343668	0.936777	1.891066	8.233228	11.778946	0.205581	29.936401	0.500957	0.000000	1.669878	-1.296122	-6.109697	14.960748	0.261114	28.552847	-9.355523	0.000000	-0.131900	-0.012048	0.837510	-0.244952	-0.016023	0.889854	-0.216699	-0.029293	0.889854	-0.150749	-0.029293	0.732821	-0.122483	-0.024568	0.680477	-0.075368	-0.018662	0.628132	-0.942150	-0.136286	4.657977	0.000000	0.000000	27.236444	1.350171	3.947826	-29.592983	-14.028855	-5.164575	100.872157	88.240901	3.956013	2.685571	-2.219417	-12.914179	-5.568697	108.784620	81.568505	-9.043681	8.965502
2.800000	-1.426490	-7.313557	82.419261	0.197704	0.963933	0.344218	0.983605	1.654549	8.242414	11.643980	0.203226	29.772046	0.936023	0.000000	1.622048	-1.105276	-6.529364	14.734411	0.257164	28.089033	-9.290224	0.000000	-0.134483	-0.024246	0.841982	-0.249749	-0.032247	0.894606	-0.220943	-0.058952	0.894606	-0.153701	-0.058952	0.736734	-0.124881	-0.049443	0.684110	-0.076844	-0.037557	0.631486	-0.960602	-0.274278	4.682850	0.000000	0.000000	27.249141	1.342982	4.187731	-30.648923	-14.247585	-5.386161	101.162434	88.448492	3.250790	0.687260	-1.302507	-13.210723	-6.123375	109.995372	79.964182	-8.898628	9.945299
2.816667	-1.578330	-7.349561	82.078580	0.197931	0.964379	0.344728	1.054374	1.453275	8.256289	11.591916	0.202317	29.622397	1.271090	0.000000	1.566400	-0.941650	-6.960281	14.510255	0.253252	27.702366	-9.151033	0.000000	-0.136402	-0.031905	0.828828	-0.253312	-0.042434	0.880630	-0.224095	-0.077574	0.880630	-0.155894	-0.077574	0.725224	-0.126663	-0.065061	0.673423	-0.077940	-0.049421	0.621621	-0.974305	-0.360915	4.609691	0.000000	0.000000	27.242213	1.329240	4.493676	-31.530065	-14.464814	-5.511394	101.300138	88.622666	2.501175	-1.455618	-0.440020	-13.514864	-6.656664	110.961248	78.241876	-8.739497	11.196138
2.833333	-1.690757	-7.376171	81.800366	0.198067	0.964682	0.345172	1.143515	1.305060	8.283655	11.624913	0.202893	29.490492	1.474794	0.000000	1.515020	-0.821892	-7.364440	14.314980	0.249844	27.414467	-8.958294	0.000000	-0.136640	-0.034154	0.805819	-0.253754	-0.045425	0.856183	-0.224486	-0.083043	0.856183	-0.156166	-0.083043	0.705092	-0.126884	-0.069647	0.654728	-0.078076	-0.052905	0.604364	-0.976006	-0.386360	4.481724	0.000000	0.000000	27.220723	1.268218	4.746609	-32.265136	-14.652687	-5.592206	101.264790	88.768347	1.783834	-3.810864	0.355880	-13.800991	-7.089173	111.655316	76.564393	-8.598284	12.479340
2.850000	-1.755113	-7.376874	81.599864	0.198114	0.964853	0.345546	1.238897	1.225571	8.344759	11.759320	0.205239	29.369683	1.466042	0.000000	1.462007	-0.753042	-7.702560	14.174605	0.247394	27.226049	-8.750964	0.000000	-0.137336	-0.031080	0.785911	-0.255047	-0.041337	0.835031	-0.225630	-0.075568	0.835031	-0.156962	-0.075568	0.687672	-0.127531	-0.063378	0.638553	-0.078474	-0.048143	0.589433	-0.980980	-0.351584	4.371003	0.000000	0.000000	27.172229	1.134568	4.868137	-32.910833	-14.793011	-5.680359	101.088174	88.857609	1.038648	-6.361020	1.101527	-14.069911	-7.300773	112.022142	75.137697	-8.548260	13.500569
2.866667	-1.788747	-7.371277	81.488585	0.198100	0.964866	0.345829	1.350731	1.187091	8.351553	11.971750	0.208946	29.311176	1.396187	0.000000	1.421928	-0.719286	-7.955488	14.079789	0.245739	27.122713	-8.543691	0.000000	-0.135127	-0.026045	0.746720	-0.250944	-0.034640	0.793390	-0.222000	-0.063325	0.793390	-0.154437	-0.063325	0.653380	-0.125479	-0.053111	0.606710	-0.077212	-0.040343	0.560040	-0.965198	-0.294624	4.153031	0.000000	0.000000	27.102257	1.044499	4.953992	-33.358770	-14.907790	-5.665895	100.706859	88.921007	0.392809	-8.956066	1.591638	-14.210166	-7.606682	112.225423	74.098425	-8.289289	14.448647
